<?xml version="1.0" standalone="no"?>
<!DOCTYPE svg PUBLIC "-//W3C//DTD SVG 20010904//EN"
 "http://www.w3.org/TR/2001/REC-SVG-20010904/DTD/svg10.dtd">
<svg version="1.0" xmlns="http://www.w3.org/2000/svg"
 width="782.000000pt" height="782.000000pt" viewBox="0 0 782.000000 782.000000"
 preserveAspectRatio="xMidYMid meet">
<metadata>
Created by potrace 1.14, written by Peter Selinger 2001-2017
</metadata>
<g transform="translate(0.000000,782.000000) scale(0.100000,-0.100000)"
fill="#000000" stroke="none">
<path d="M3524 7721 c-2 -3 -19 -6 -37 -8 -60 -6 -92 -11 -97 -13 -3 -2 -16
-4 -30 -5 -14 -2 -27 -4 -30 -5 -3 -1 -23 -4 -45 -5 -22 -2 -51 -7 -65 -10
-14 -4 -36 -8 -50 -10 -77 -11 -90 -14 -101 -20 -6 -4 -25 -9 -42 -11 -18 -2
-48 -6 -67 -9 -19 -4 -41 -7 -47 -7 -7 -1 -13 -5 -13 -9 0 -4 -8 -6 -17 -4
-10 1 -23 -2 -29 -7 -7 -5 -16 -8 -20 -6 -5 1 -18 -3 -29 -9 -11 -6 -28 -9
-37 -8 -10 2 -18 0 -18 -5 0 -9 -55 -32 -85 -35 -11 -1 -28 -5 -37 -9 -9 -4
-23 -9 -32 -10 -8 -1 -19 -5 -22 -9 -4 -4 -16 -7 -26 -7 -10 0 -18 -4 -18 -10
0 -5 -12 -13 -27 -16 -16 -4 -33 -10 -38 -15 -6 -4 -22 -9 -37 -11 -14 -2 -33
-10 -41 -17 -9 -7 -21 -10 -27 -6 -5 3 -10 1 -10 -5 0 -9 -49 -34 -59 -30 -2
1 -7 -2 -10 -7 -5 -8 -58 -36 -86 -45 -5 -2 -19 -13 -32 -25 -12 -13 -29 -23
-38 -23 -8 0 -15 -5 -15 -12 0 -6 -3 -8 -7 -5 -8 9 -34 -13 -28 -23 3 -4 -9
-6 -25 -5 -20 2 -30 -2 -30 -11 0 -8 -7 -14 -15 -14 -14 0 -19 -12 -16 -33 1
-4 -10 -5 -23 -3 -26 5 -51 -15 -38 -29 4 -5 -1 -6 -10 -2 -10 3 -19 0 -22 -9
-3 -9 -10 -12 -16 -9 -5 3 -10 0 -10 -8 0 -13 -33 -31 -53 -28 -6 1 -11 -14
-9 -30 1 -4 -7 -6 -16 -6 -40 0 -52 -4 -50 -15 2 -7 -2 -12 -9 -13 -6 0 -25
-15 -42 -32 -17 -18 -31 -30 -31 -27 0 4 -6 1 -13 -5 -8 -6 -17 -8 -20 -4 -6
6 -9 -4 -6 -24 1 -6 -30 -27 -41 -28 -14 -1 -30 -18 -24 -26 3 -5 2 -9 -3 -8
-19 3 -34 -2 -28 -10 3 -5 -4 -12 -15 -16 -11 -4 -18 -11 -15 -16 6 -8 -8 -13
-27 -10 -4 0 -17 -15 -29 -35 -15 -25 -27 -34 -40 -31 -12 3 -20 -2 -24 -13
-3 -10 -13 -21 -21 -24 -8 -3 -12 -11 -9 -16 4 -6 3 -10 -2 -9 -17 3 -33 -1
-31 -8 2 -5 -1 -9 -7 -10 -5 -1 -12 -10 -16 -20 -3 -10 -12 -18 -20 -18 -8 0
-14 -7 -14 -15 -1 -8 -6 -14 -13 -12 -11 2 -16 -11 -13 -31 1 -5 -3 -6 -9 -2
-5 3 -31 -14 -57 -40 -26 -25 -51 -45 -55 -45 -5 0 -8 -7 -8 -15 0 -8 -3 -14
-8 -13 -4 2 -21 -9 -37 -24 -16 -16 -33 -28 -37 -28 -5 0 -8 -6 -8 -13 0 -7
-9 -18 -20 -25 -12 -7 -18 -17 -15 -22 3 -5 0 -7 -8 -4 -9 3 -17 -3 -20 -16
-3 -12 -10 -19 -16 -16 -5 4 -12 -3 -16 -14 -4 -11 -10 -18 -15 -15 -4 3 -10
-4 -13 -15 -3 -11 -11 -19 -19 -18 -8 2 -12 -4 -10 -16 2 -10 -1 -15 -7 -12
-12 8 -25 -12 -26 -39 -1 -11 -6 -19 -13 -17 -7 1 -12 -3 -12 -8 0 -6 -11 -15
-25 -22 -13 -6 -22 -14 -20 -18 2 -4 -5 -17 -16 -28 -11 -12 -17 -22 -13 -22
4 0 -2 -10 -14 -23 -12 -13 -19 -27 -15 -32 5 -4 4 -6 -2 -3 -11 7 -37 -17
-28 -26 3 -3 -2 -8 -11 -12 -9 -3 -14 -10 -11 -14 3 -5 1 -11 -5 -15 -6 -4 -7
-11 -4 -17 4 -6 2 -8 -3 -5 -11 7 -26 -16 -28 -43 0 -8 -6 -14 -13 -13 -7 2
-12 0 -13 -5 -3 -30 -10 -47 -23 -54 -9 -5 -16 -15 -16 -23 0 -7 -6 -20 -12
-27 -7 -7 -15 -22 -17 -33 -1 -11 -16 -31 -31 -45 -16 -14 -32 -38 -35 -53 -4
-15 -11 -24 -16 -21 -5 3 -9 2 -10 -3 -3 -32 -11 -58 -21 -64 -6 -4 -12 -19
-14 -35 -2 -15 -8 -30 -14 -34 -7 -4 -12 -11 -12 -16 -1 -19 -11 -34 -22 -34
-8 0 -12 -13 -11 -35 1 -21 -5 -42 -15 -53 -9 -10 -16 -25 -14 -35 1 -9 -2
-15 -6 -12 -13 8 -24 -16 -26 -60 -1 -22 -3 -46 -3 -54 -1 -8 -4 -11 -8 -8
-10 11 -32 -13 -26 -29 3 -8 0 -14 -6 -14 -6 0 -10 -3 -9 -7 1 -5 -2 -17 -8
-28 -6 -11 -10 -31 -9 -45 1 -14 -7 -37 -17 -51 -9 -14 -15 -29 -11 -32 3 -4
-2 -19 -12 -34 -10 -15 -19 -43 -21 -63 -1 -19 -3 -38 -3 -42 -1 -5 -7 -8 -14
-8 -9 0 -13 -17 -12 -60 1 -33 -2 -60 -6 -60 -6 0 -22 -42 -24 -65 0 -5 -3
-14 -6 -20 -3 -5 -5 -22 -4 -37 1 -16 -2 -28 -7 -28 -5 0 -7 -4 -4 -9 4 -5 1
-11 -6 -13 -9 -3 -12 -35 -12 -106 0 -55 -3 -100 -6 -100 -18 1 -19 -4 -7 -23
14 -19 12 -59 -2 -59 -10 0 -10 -9 -17 -298 -5 -201 -3 -266 6 -277 9 -11 10
-15 1 -15 -8 0 -10 -8 -5 -22 13 -42 18 -117 13 -208 -2 -32 3 -53 16 -62 6
-5 6 -8 -2 -8 -12 0 -7 -60 5 -70 4 -3 7 -41 7 -85 0 -58 4 -84 15 -95 8 -8
15 -33 15 -55 0 -42 11 -68 26 -59 14 8 10 -3 -7 -20 -8 -9 -11 -16 -5 -16 6
0 7 -7 4 -17 -4 -9 -2 -14 3 -10 6 3 10 -7 9 -26 -1 -18 5 -40 13 -49 9 -10
15 -39 16 -65 1 -36 5 -50 19 -55 14 -6 16 -12 7 -27 -7 -13 -7 -22 0 -26 5
-3 10 -15 10 -26 0 -10 4 -19 9 -19 5 0 8 -11 6 -25 -1 -16 3 -25 12 -25 8 0
11 -4 8 -10 -3 -5 -1 -10 5 -10 6 0 8 -5 5 -10 -8 -12 14 -42 25 -35 4 2 6 -7
4 -20 -1 -15 5 -30 15 -38 9 -6 16 -21 16 -32 0 -11 7 -27 15 -35 8 -8 16 -26
18 -40 1 -14 7 -26 12 -28 5 -2 12 -19 16 -37 3 -19 11 -33 17 -32 11 2 13 -4
16 -44 0 -11 5 -17 11 -14 5 3 10 1 10 -4 0 -6 0 -13 0 -16 0 -3 9 -14 20 -25
12 -12 18 -25 15 -30 -6 -9 7 -14 27 -11 4 0 5 -13 3 -29 -2 -16 1 -32 6 -36
5 -3 7 -9 4 -14 -3 -4 2 -10 10 -14 8 -3 15 -13 15 -21 0 -9 5 -13 10 -10 9 6
12 2 14 -27 1 -19 20 -37 30 -31 5 3 7 0 4 -7 -2 -8 2 -21 9 -29 8 -9 25 -31
39 -49 14 -17 30 -30 34 -27 5 3 7 -4 5 -16 -5 -23 12 -52 24 -44 4 2 8 -2 9
-10 1 -8 3 -22 4 -30 1 -8 7 -16 15 -19 7 -3 13 -13 13 -21 0 -9 5 -13 10 -10
6 3 13 -2 17 -12 4 -10 11 -21 15 -24 5 -3 10 -12 11 -20 4 -24 18 -40 29 -33
6 4 8 2 4 -4 -3 -6 1 -17 9 -25 8 -9 15 -20 15 -26 0 -18 52 -71 63 -64 6 4 8
0 4 -10 -4 -10 1 -18 14 -22 10 -4 19 -11 19 -16 0 -6 4 -8 8 -5 5 3 15 -6 22
-19 7 -14 17 -25 22 -25 5 0 6 -5 3 -10 -6 -9 8 -15 29 -11 5 1 6 -5 3 -14 -4
-8 -2 -15 4 -15 6 0 7 -4 4 -10 -3 -5 1 -10 9 -10 9 0 16 -5 16 -11 0 -5 5 -7
10 -4 9 5 14 -7 11 -27 0 -4 13 -16 29 -28 16 -11 32 -30 35 -41 4 -11 9 -18
12 -16 2 3 25 -16 50 -41 25 -26 50 -46 55 -44 5 1 7 -2 4 -7 -3 -5 1 -14 9
-21 8 -7 15 -9 15 -4 0 5 7 -2 16 -14 8 -12 22 -22 31 -22 9 0 13 -3 9 -7 -3
-4 12 -15 34 -25 22 -10 40 -23 40 -29 0 -6 4 -8 9 -5 11 7 33 -18 24 -27 -5
-6 19 -11 39 -8 4 0 10 -8 13 -19 4 -11 11 -18 16 -14 6 3 13 -3 16 -14 3 -11
12 -19 21 -18 9 2 25 -5 36 -15 10 -10 24 -15 29 -12 6 4 8 0 4 -10 -6 -16 8
-23 36 -18 4 0 6 -4 5 -11 -2 -6 8 -17 20 -24 13 -6 28 -16 34 -22 6 -6 18 -8
27 -5 9 4 13 2 9 -2 -11 -12 28 -36 47 -29 9 4 15 3 14 -2 -3 -20 2 -35 10
-29 5 3 16 -3 23 -12 7 -10 22 -20 33 -21 10 -2 25 -11 32 -20 7 -10 13 -13
13 -8 0 5 9 1 21 -10 12 -10 23 -18 25 -16 10 6 25 1 20 -7 -4 -5 7 -12 24
-16 16 -4 34 -13 38 -22 5 -8 12 -15 15 -15 17 0 47 -11 47 -17 0 -8 71 -36
83 -33 5 1 6 -2 3 -7 -8 -13 16 -29 41 -26 12 1 20 -2 17 -6 -6 -11 17 -24 43
-24 12 0 30 -8 40 -17 10 -8 30 -15 46 -14 17 1 29 -4 32 -15 4 -10 14 -15 30
-14 17 2 26 -3 30 -16 4 -11 11 -17 16 -13 6 3 16 0 24 -6 8 -7 15 -9 15 -4 0
4 7 -1 15 -12 8 -10 15 -14 15 -9 0 6 15 10 34 10 19 0 32 -3 30 -7 -6 -9 26
-25 46 -23 8 1 26 -6 40 -16 14 -9 37 -15 51 -14 20 3 26 -1 25 -13 -1 -13 8
-17 39 -16 22 0 42 -3 45 -7 3 -5 17 -11 30 -13 14 -2 25 -5 25 -6 0 -1 22 -3
49 -5 27 -2 52 -9 57 -16 4 -8 28 -14 56 -14 53 -2 103 -13 103 -24 0 -4 21
-5 48 -3 83 7 155 3 220 -12 12 -3 22 -1 22 5 0 5 10 4 23 -4 17 -10 76 -12
252 -10 521 6 605 10 605 31 0 4 35 7 78 7 42 -1 82 1 87 4 6 3 21 7 35 7 48
3 51 4 46 12 -3 5 17 8 45 7 27 -1 49 2 49 7 0 4 3 7 8 6 13 -4 52 13 48 21
-3 4 23 7 57 6 38 0 66 5 72 13 6 7 31 14 57 16 26 2 54 11 62 19 8 8 27 14
43 13 15 -1 36 7 46 17 11 11 25 16 38 12 11 -4 19 -2 19 5 0 6 6 10 13 8 6
-1 21 3 33 9 11 7 29 10 40 9 10 -2 25 1 32 7 6 5 12 7 12 3 0 -4 11 1 25 10
14 9 25 13 25 10 0 -4 9 2 21 13 12 11 29 18 39 16 10 -2 26 4 37 14 10 10 24
16 31 13 6 -2 12 2 12 8 0 7 7 10 15 6 9 -3 15 0 15 9 0 8 5 15 10 15 6 0 12
0 15 0 2 1 28 12 57 25 28 13 55 22 59 20 4 -3 10 2 13 11 3 8 10 12 16 9 5
-3 10 -1 10 5 0 7 7 10 15 6 9 -3 15 0 15 10 0 9 6 14 13 11 7 -3 19 4 26 14
6 11 16 17 21 14 6 -3 10 -1 10 5 0 6 4 9 9 6 5 -3 11 1 14 9 4 8 15 12 26 10
11 -2 25 3 31 11 7 7 15 12 19 9 4 -2 20 7 36 21 15 13 32 24 37 24 18 0 24 3
48 29 26 27 33 31 51 31 5 0 7 4 4 10 -5 9 1 12 21 9 4 0 10 3 13 8 9 13 71
55 71 48 0 -3 6 -1 13 5 46 39 61 50 69 50 5 0 6 4 3 10 -3 5 5 15 19 22 14 6
26 15 26 20 0 4 7 8 16 8 8 0 13 4 9 9 -3 5 4 13 16 16 11 4 33 20 48 36 15
16 30 27 32 24 3 -2 22 11 44 30 21 19 42 35 47 35 4 0 8 6 8 13 0 7 10 19 22
27 12 8 30 23 40 33 10 9 20 17 23 17 3 0 10 0 15 0 6 0 9 6 8 13 -2 6 2 11 7
10 6 0 16 5 23 13 7 8 10 14 7 14 -5 0 35 37 86 79 45 37 179 172 179 180 0 5
9 13 21 16 12 4 18 13 15 20 -3 8 3 17 15 20 10 4 17 11 14 16 -4 5 1 12 9 15
9 3 16 12 16 19 0 7 13 27 29 44 16 17 26 31 23 31 -3 0 11 16 31 35 20 19 37
42 37 50 0 9 7 18 15 21 8 4 12 10 9 15 -3 5 0 9 5 9 6 0 11 7 11 15 0 8 9 20
20 27 11 7 20 21 20 30 0 9 8 21 18 27 9 5 16 13 16 18 -2 16 19 52 27 47 5
-3 9 -1 9 4 0 5 11 22 25 38 13 16 30 36 37 44 7 8 13 24 13 35 0 11 11 38 24
60 14 22 24 43 23 48 -1 4 3 7 10 7 6 0 8 3 5 6 -3 4 -1 16 5 28 7 11 12 25
13 29 0 4 6 12 14 17 8 4 16 15 17 23 4 31 16 57 25 57 6 0 7 5 4 10 -3 6 -1
10 4 10 6 0 10 3 9 8 -3 15 15 62 24 62 5 0 7 4 3 9 -3 5 2 16 11 25 8 9 13
20 9 25 -3 5 -1 12 5 16 6 4 8 10 5 15 -3 4 2 13 10 20 8 7 13 16 10 20 -3 5
-1 11 5 15 6 4 8 11 5 16 -4 5 -3 15 2 22 4 6 8 18 10 26 1 8 8 18 15 22 7 5
9 9 5 9 -4 0 -3 9 3 21 13 24 22 55 23 87 1 12 4 22 8 22 8 0 24 40 21 53 -1
4 5 22 14 39 14 27 20 59 23 126 1 13 6 20 11 17 9 -6 14 14 11 43 -1 6 2 12
7 12 4 0 7 20 7 45 -1 25 2 45 6 45 4 0 6 9 4 20 -2 11 1 20 6 20 6 0 8 4 5 9
-3 4 3 32 14 61 11 29 17 57 14 61 -3 5 -2 15 3 22 4 6 8 48 9 92 1 44 2 80 4
80 12 0 17 583 5 675 -4 25 -7 73 -8 108 -1 34 -6 62 -11 62 -5 0 -6 3 -3 6 3
4 1 16 -5 28 -6 11 -12 37 -13 56 -1 20 -4 40 -7 45 -3 6 -4 36 -4 68 1 31 -2
57 -6 57 -4 0 -8 7 -8 16 0 8 -4 13 -8 10 -4 -2 -8 23 -7 57 0 34 -3 65 -8 68
-5 4 -10 23 -11 43 0 20 -3 36 -6 36 -3 0 -6 17 -7 38 -1 20 -3 46 -6 57 -3
11 -6 24 -6 28 -1 5 -5 6 -9 3 -5 -3 -8 10 -7 29 2 19 -1 35 -5 35 -8 0 -23
48 -26 85 -2 31 -15 56 -25 49 -6 -3 -8 6 -5 20 3 14 1 26 -3 26 -4 0 -15 23
-25 50 -10 28 -22 50 -27 50 -5 0 -8 3 -7 8 1 4 -6 22 -15 40 -10 18 -15 37
-12 42 3 6 1 10 -5 10 -6 0 -9 4 -5 9 3 5 -2 16 -11 25 -8 9 -17 28 -20 42 -3
15 -9 35 -15 46 -5 10 -7 18 -4 18 3 0 -2 14 -12 30 -9 17 -21 30 -25 30 -4 0
-8 9 -8 19 0 11 -5 23 -10 26 -6 4 -8 11 -5 16 4 5 1 9 -6 9 -7 0 -9 3 -6 7 4
4 -5 19 -20 35 -15 15 -23 28 -17 28 5 0 4 4 -3 8 -6 4 -13 16 -15 27 -1 11
-10 25 -18 32 -8 7 -11 13 -7 13 5 0 2 7 -5 15 -31 34 -40 49 -47 77 -1 4 -15
21 -32 39 -16 17 -28 34 -26 36 3 2 -16 24 -40 48 -25 25 -41 45 -37 45 4 0 0
8 -9 18 -10 10 -14 22 -10 25 3 4 2 7 -4 7 -6 0 -23 20 -38 45 -16 24 -32 42
-37 39 -4 -3 -8 -2 -8 3 0 4 -19 28 -43 53 -23 25 -53 60 -67 78 -39 52 -78
90 -126 127 -25 19 -43 35 -40 35 3 0 -2 8 -11 18 -10 11 -21 17 -24 15 -7 -3
-22 24 -23 42 -1 6 -5 10 -11 10 -5 0 -26 15 -45 33 -19 17 -38 32 -42 32 -13
0 -48 34 -48 47 0 6 -9 15 -20 18 -11 3 -20 11 -20 17 0 6 -3 8 -6 5 -4 -4
-30 17 -59 46 -67 67 -103 96 -110 89 -3 -3 -5 0 -5 6 0 7 -6 12 -14 12 -8 0
-37 22 -65 49 -28 27 -51 47 -51 44 0 -3 -6 0 -13 6 -8 6 -17 8 -20 4 -4 -3
-9 2 -13 11 -3 9 -10 14 -14 11 -4 -3 -11 2 -14 11 -3 8 -10 13 -15 9 -5 -3
-12 -1 -16 5 -4 6 -11 8 -16 5 -5 -4 -9 1 -9 10 0 9 -4 13 -10 10 -5 -3 -10
-1 -10 4 0 6 -3 10 -7 9 -5 -1 -21 5 -36 12 -20 10 -24 16 -15 22 10 6 8 8 -4
8 -10 0 -18 5 -18 11 0 5 -5 7 -10 4 -6 -4 -32 6 -58 21 -26 16 -50 27 -54 26
-5 -1 -8 3 -8 9 0 5 -4 8 -9 5 -5 -3 -14 1 -21 9 -7 8 -16 12 -21 9 -5 -2 -20
3 -34 12 -14 9 -25 13 -25 8 0 -4 -9 2 -21 15 -12 12 -27 20 -34 17 -8 -3 -19
2 -25 10 -7 8 -19 14 -26 14 -8 0 -14 4 -14 8 0 5 -6 9 -12 10 -7 0 -22 3 -33
5 -11 3 -26 7 -34 9 -8 1 -23 10 -33 18 -10 8 -20 13 -22 10 -2 -3 -12 3 -22
12 -11 9 -23 18 -29 19 -21 4 -55 23 -55 30 0 4 -11 6 -25 3 -14 -2 -25 0 -25
5 0 6 -6 8 -14 5 -8 -3 -17 0 -21 5 -3 6 -11 9 -16 6 -5 -4 -15 -3 -21 2 -7 4
-20 8 -28 8 -26 1 -60 16 -60 26 0 5 -3 8 -7 8 -5 -1 -10 0 -13 1 -8 3 -44 11
-65 14 -11 2 -20 4 -20 6 0 1 -18 3 -39 6 -22 2 -42 8 -46 13 -3 6 -28 12 -55
15 -28 2 -51 5 -52 6 -2 2 -6 3 -10 5 -5 1 -16 5 -25 9 -9 4 -25 9 -35 11 -10
2 -18 4 -18 5 0 2 -59 10 -92 12 -7 1 -13 5 -13 10 0 5 -4 7 -9 3 -5 -3 -12
-1 -16 5 -4 6 -11 8 -16 5 -5 -4 -9 -3 -9 2 0 4 -26 8 -58 9 -52 1 -126 9
-177 21 -31 6 -67 13 -105 20 -51 8 -491 9 -496 1 -3 -4 -14 -5 -27 -2 -30 7
-207 11 -213 5z m416 -161 c0 -5 142 -5 148 0 5 5 28 6 37 1 17 -9 45 -8 45 2
0 5 8 6 18 2 9 -4 27 -7 39 -7 12 1 25 -3 28 -8 3 -5 12 -7 20 -3 8 3 15 0 15
-7 0 -6 4 -9 9 -5 5 3 12 -4 16 -15 4 -11 11 -18 16 -15 12 8 11 19 13 -191 2
-99 6 -186 10 -192 4 -7 4 -12 -1 -12 -4 0 -9 -147 -10 -328 -6 -759 -9 -917
-20 -937 -6 -11 -9 -29 -7 -40 2 -11 1 -27 -3 -35 -12 -32 -8 -202 6 -234 8
-17 15 -35 15 -39 2 -16 27 -23 71 -22 25 1 45 -1 45 -4 0 -7 155 -4 215 4 63
9 149 12 160 6 6 -3 42 -7 80 -9 39 -2 85 -4 103 -5 17 -1 32 -4 32 -7 0 -3
37 -4 82 -3 46 0 83 2 83 3 0 1 37 3 83 4 45 2 82 0 82 -4 0 -8 116 -4 130 5
5 3 10 1 10 -5 0 -7 5 -8 13 -3 18 12 121 10 129 -2 5 -6 8 -5 8 3 0 8 5 10
13 5 17 -10 179 -12 193 -2 6 5 21 6 35 3 46 -9 124 -16 244 -19 66 -1 122 -4
125 -5 11 -5 66 -5 75 0 17 9 580 6 586 -3 5 -7 26 -14 52 -16 5 -1 5 -5 2
-11 -3 -5 -1 -10 5 -10 6 0 8 -5 5 -10 -3 -6 0 -13 9 -16 8 -3 12 -12 10 -19
-3 -7 2 -28 12 -47 10 -18 18 -42 18 -53 1 -25 15 -47 25 -40 5 2 7 -7 5 -20
-1 -15 5 -30 16 -38 18 -12 20 -17 20 -42 0 -8 5 -14 12 -12 8 1 12 -17 13
-58 1 -45 4 -60 15 -60 10 0 15 -10 14 -28 -1 -24 6 -32 29 -28 12 2 8 -9 -9
-27 -14 -13 -14 -17 -2 -21 8 -3 14 -15 15 -26 1 -28 14 -65 22 -65 4 0 8 -17
8 -37 1 -60 2 -65 13 -58 10 6 12 -5 13 -57 0 -16 3 -28 7 -28 3 0 5 -20 4
-45 -2 -33 1 -47 13 -54 14 -8 14 -9 -3 -15 -26 -8 -27 -99 -1 -104 26 -5 23
-68 -3 -75 -20 -5 -45 15 -33 26 3 4 -1 7 -10 7 -11 0 -17 9 -18 25 -1 14 -3
30 -4 35 -1 6 -3 14 -4 20 0 5 -9 6 -18 3 -12 -5 -15 -2 -10 9 4 11 -1 18 -14
21 -11 3 -18 11 -17 18 2 7 -4 13 -12 14 -8 0 -15 5 -15 11 0 10 -34 48 -44
50 -3 0 -23 4 -44 8 -28 6 -43 4 -63 -9 -44 -29 -74 -58 -68 -67 3 -5 2 -8 -3
-7 -20 3 -33 -2 -30 -13 1 -7 -8 -13 -20 -14 -41 -3 -43 -4 -43 -17 0 -9 -10
-12 -30 -9 -16 2 -30 9 -30 16 0 7 -21 11 -57 10 -68 0 -95 5 -87 17 5 9 -9
13 -33 10 -7 -1 -32 7 -56 18 -25 11 -55 18 -67 16 -12 -2 -34 1 -49 8 -14 7
-41 13 -60 12 -19 -1 -35 4 -38 12 -3 7 -13 13 -23 13 -10 0 -26 7 -35 16 -14
14 -31 19 -92 26 -7 1 -11 6 -10 12 1 6 -5 11 -13 10 -12 -1 -15 11 -15 55 1
31 5 63 10 71 5 8 10 24 10 35 0 11 3 25 6 30 10 18 2 74 -15 99 -34 53 -58
60 -200 61 -124 1 -163 -6 -150 -26 3 -5 2 -9 -3 -8 -14 3 -79 -29 -92 -45 -7
-9 -17 -13 -22 -11 -4 3 -13 -4 -19 -16 -7 -11 -14 -18 -17 -15 -3 3 -22 -3
-42 -13 -20 -10 -41 -16 -48 -14 -6 2 -14 0 -17 -6 -4 -6 -19 -3 -39 7 -17 9
-51 17 -74 17 -23 1 -49 8 -58 15 -8 7 -15 9 -15 5 0 -4 -6 -3 -12 2 -7 5 -32
9 -55 9 -24 -1 -43 2 -43 6 0 6 -31 19 -58 24 -7 1 -20 8 -29 15 -19 16 -65
18 -75 4 -5 -6 -12 -5 -18 5 -5 8 -10 11 -10 6 0 -5 -7 -3 -15 4 -8 7 -15 9
-15 5 0 -4 -6 -3 -12 2 -7 6 -28 9 -47 8 -19 -1 -43 5 -53 14 -9 8 -32 16 -50
17 -44 2 -62 7 -70 18 -3 5 -30 10 -58 11 -29 1 -55 6 -58 12 -4 6 -26 9 -49
8 -23 -1 -40 1 -38 5 6 10 -21 22 -54 26 -13 2 -27 7 -30 13 -4 5 -20 12 -36
15 -17 2 -30 5 -30 6 0 1 -8 3 -19 5 -10 2 -23 8 -29 14 -6 6 -19 11 -29 11
-10 0 -18 5 -18 10 0 6 -13 10 -30 10 -16 0 -30 4 -30 9 0 4 -16 7 -35 6 -19
-1 -35 1 -35 5 0 3 -12 5 -27 4 -16 -1 -35 5 -44 13 -9 7 -36 16 -59 18 -24 3
-46 9 -49 13 -3 5 -15 8 -26 6 -10 -2 -24 1 -30 5 -5 4 -21 7 -35 6 -14 -1
-36 6 -50 16 -14 9 -35 15 -48 13 -13 -2 -21 0 -17 6 3 5 -7 9 -22 10 -76 1
-102 4 -100 13 2 9 -17 15 -58 19 -11 1 -33 9 -50 18 -16 9 -40 15 -52 14 -13
-1 -23 4 -23 11 0 8 -10 12 -25 10 -14 -1 -27 1 -30 5 -2 3 -21 5 -42 3 -21
-1 -47 4 -60 12 -14 10 -23 11 -23 5 0 -6 -5 -8 -12 -4 -7 5 -21 9 -31 9 -10
1 -23 8 -28 16 -7 12 -9 12 -9 -1 0 -13 -2 -13 -9 -1 -5 8 -26 16 -46 16 -19
1 -41 9 -48 18 -6 8 -23 18 -37 20 -23 4 59 11 88 8 6 -1 12 3 12 9 0 6 5 8
10 5 6 -3 10 0 10 7 0 8 3 9 8 3 4 -6 13 -10 20 -9 6 1 19 2 28 3 8 0 13 5 10
10 -4 5 2 8 11 6 10 -2 18 -4 18 -5 0 -3 40 -10 60 -10 56 -2 132 7 151 17 12
7 33 10 48 7 14 -2 26 0 26 5 0 5 9 13 20 16 13 4 23 18 27 36 3 16 9 29 14
29 4 0 6 11 3 24 -2 14 -1 27 4 30 4 2 6 49 5 103 -2 54 -2 116 -2 138 0 22 0
49 -1 60 -3 29 -2 54 4 205 3 74 6 140 6 145 -5 171 -5 305 0 305 3 0 6 51 7
113 1 61 4 182 6 267 1 85 1 159 -2 165 -15 30 -20 198 -7 230 5 11 10 34 12
50 9 73 14 88 31 105 11 9 25 19 32 21 19 7 191 6 191 -1z m-862 -499 c-3 -11
13 -51 21 -51 5 0 6 -11 3 -25 -2 -14 -8 -23 -12 -20 -4 3 -10 -2 -14 -10 -3
-8 -1 -15 4 -15 6 0 9 -3 9 -7 -3 -20 2 -34 10 -28 6 3 7 -6 4 -22 -3 -16 -6
-85 -7 -155 -1 -106 -4 -128 -16 -129 -8 0 -26 -3 -40 -6 -14 -3 -35 -6 -47
-7 -13 -1 -23 -4 -23 -7 0 -4 -12 -6 -27 -7 -53 0 -64 -2 -59 -10 2 -4 -113
-8 -257 -9 -144 -1 -302 -4 -350 -6 -49 -2 -91 1 -93 5 -3 5 -11 5 -17 0 -7
-4 -25 -7 -42 -6 -16 1 -47 2 -67 3 -21 1 -38 6 -38 12 0 14 131 145 142 142
4 -2 8 2 8 7 0 6 6 10 14 10 7 0 25 9 38 20 14 10 28 16 32 13 3 -3 6 0 6 7 0
7 3 11 6 7 4 -3 13 1 21 9 8 8 19 12 24 9 5 -4 9 -1 9 6 0 7 3 9 6 6 4 -4 19
2 34 13 15 11 30 17 34 13 3 -3 6 0 6 7 0 7 3 10 7 7 3 -4 15 1 25 10 19 17
37 23 71 26 9 1 17 4 17 8 0 8 63 39 91 44 12 2 27 9 35 16 8 6 14 8 14 4 0
-4 6 -2 13 4 8 6 17 8 20 4 4 -3 7 -1 7 6 0 7 5 9 10 6 6 -3 10 -1 10 5 0 6 4
9 9 5 5 -3 12 -1 15 4 3 4 20 11 38 15 30 6 96 34 108 46 3 3 19 7 35 8 17 1
46 4 65 6 19 1 34 7 33 12 -1 6 11 8 27 6 16 -2 29 -7 28 -11z m1937 -51 c3
-11 16 -15 38 -15 40 2 59 -4 51 -16 -3 -5 3 -10 13 -11 10 0 24 -2 31 -2 7
-1 17 -8 22 -16 5 -8 14 -15 20 -15 6 0 14 -5 18 -12 10 -17 60 -24 66 -10 3
7 7 3 11 -9 5 -15 14 -20 35 -18 17 1 39 -6 51 -17 12 -10 27 -16 33 -12 6 3
8 3 4 -2 -12 -12 23 -33 52 -30 15 1 30 -6 38 -17 7 -10 18 -16 23 -13 5 4 9
1 9 -5 0 -6 5 -8 10 -5 6 3 13 0 16 -8 4 -12 13 -13 34 -7 16 5 29 5 29 2 -3
-21 3 -28 23 -27 12 1 33 -11 50 -28 16 -17 36 -31 46 -32 9 0 17 -4 17 -9 0
-4 11 -14 25 -21 14 -8 22 -14 18 -15 -5 0 1 -9 12 -20 35 -35 31 -39 -56 -43
-27 -2 -54 -5 -60 -8 -5 -3 -65 -4 -134 -2 -229 5 -360 2 -360 -7 0 -9 -193
-6 -207 3 -7 5 -17 5 -23 2 -5 -3 -19 3 -31 14 -12 11 -25 18 -29 16 -13 -8
-16 35 -15 202 1 156 2 163 24 182 13 11 20 24 17 30 -6 8 17 15 61 17 7 0 15
-7 18 -16z m344 -794 c24 -4 49 -10 55 -14 6 -4 22 -7 36 -5 28 2 149 13 198
17 18 2 34 1 36 -3 2 -3 54 -6 115 -5 61 0 111 -2 111 -5 0 -3 99 -6 220 -6
121 -1 220 2 220 7 0 10 31 -2 48 -19 7 -7 21 -13 29 -13 9 0 14 -3 10 -6 -3
-3 7 -17 24 -31 16 -14 29 -31 29 -39 0 -8 5 -14 11 -14 5 0 7 -4 4 -10 -3 -5
2 -10 11 -10 10 0 15 -3 11 -6 -8 -9 16 -33 27 -26 5 3 6 1 3 -5 -7 -11 40
-56 51 -49 4 2 8 -7 8 -20 2 -26 2 -26 -83 -27 -24 -1 -43 -4 -43 -7 0 -5 -17
-8 -110 -15 -19 -2 -35 -4 -35 -5 0 -3 -53 -10 -103 -13 -24 -2 -45 0 -48 5
-3 4 -13 4 -22 0 -9 -5 -82 -8 -162 -7 -80 1 -149 -1 -155 -4 -16 -9 -368 -8
-387 1 -9 4 -19 4 -22 0 -3 -5 -22 -7 -43 -4 -21 2 -75 5 -120 5 -46 1 -83 4
-83 7 0 8 -156 3 -169 -5 -6 -3 -11 -2 -11 3 0 4 -20 8 -45 7 -34 -1 -48 3
-63 20 -10 12 -18 29 -16 38 1 9 -1 19 -5 22 -4 2 -6 24 -4 47 2 24 5 63 6 88
1 25 7 51 14 58 7 7 10 19 7 27 -5 11 2 13 30 11 20 -2 36 -1 36 3 0 4 48 7
106 7 58 -1 110 2 116 5 10 7 87 4 157 -5z m-2569 -6 c0 -3 49 -5 109 -4 107
0 143 -5 142 -19 -1 -4 2 -7 6 -6 4 0 10 -7 13 -16 8 -23 5 -223 -3 -231 -12
-12 -75 -16 -347 -19 -151 -2 -275 -4 -275 -5 0 -1 -18 -4 -40 -5 -22 -2 -57
-6 -78 -8 -20 -3 -39 -2 -41 2 -4 6 -77 6 -83 1 -6 -5 -29 -6 -38 -1 -14 7
-308 8 -320 0 -5 -3 -17 -7 -25 -7 -8 -1 -31 -3 -50 -5 -19 -2 -39 -1 -45 2
-5 2 -84 6 -175 7 -91 1 -170 2 -176 3 -18 2 -23 38 -8 59 7 11 11 22 8 25 -3
2 2 21 10 41 8 20 12 36 8 36 -6 0 30 34 77 73 12 9 28 17 36 17 7 0 17 5 20
10 4 6 11 8 16 5 5 -4 9 -2 9 2 0 5 27 8 61 8 33 -1 62 2 64 5 2 3 152 6 334
5 182 0 331 3 331 6 0 3 24 7 53 7 103 1 299 11 303 15 6 5 104 3 104 -3z
m-1425 -726 c156 -7 317 -9 320 -3 4 6 249 3 303 -4 17 -3 32 -1 32 3 0 8 31
7 45 -2 6 -3 22 -4 38 -2 15 1 27 -1 27 -6 0 -5 9 -7 20 -5 11 2 22 0 24 -4 3
-4 20 -6 38 -6 18 1 36 -4 40 -9 5 -7 8 -6 8 3 0 11 3 11 15 1 9 -7 32 -14 53
-16 20 -1 38 -3 40 -4 1 -2 7 -4 12 -5 6 -1 11 -3 13 -5 4 -3 42 -10 79 -14
20 -3 46 -10 57 -16 12 -6 21 -8 21 -5 0 4 6 3 13 -2 6 -4 23 -9 37 -11 13 -2
28 -8 32 -14 7 -13 48 -19 48 -8 0 4 11 5 25 2 14 -2 22 -8 19 -13 -5 -8 0
-10 39 -13 6 -1 20 -9 31 -18 10 -9 27 -15 37 -13 10 2 18 1 18 -3 -3 -22 5
-27 39 -26 25 0 41 -5 49 -17 8 -10 23 -16 38 -14 14 1 23 0 20 -3 -11 -12 50
-29 73 -21 13 5 22 5 22 -1 0 -6 7 -10 15 -10 8 0 15 -4 15 -8 0 -5 15 -8 34
-7 18 1 50 -6 69 -15 20 -10 38 -15 41 -12 3 2 27 -3 53 -14 27 -10 62 -19 78
-20 52 -2 56 -4 50 -14 -3 -5 -1 -11 4 -11 6 -1 17 -2 24 -3 6 -1 17 0 22 3
21 11 34 9 40 -8 4 -12 15 -17 38 -17 22 1 31 -3 29 -13 -2 -8 3 -11 13 -8 8
4 15 3 15 -2 0 -4 16 -7 35 -6 19 1 35 -1 35 -5 0 -10 38 -22 68 -23 12 -1 22
-6 22 -13 0 -6 11 -12 25 -13 60 -4 65 -6 61 -18 -4 -10 5 -12 36 -10 27 3 46
-2 57 -12 10 -10 33 -16 61 -16 32 0 49 -5 58 -18 7 -9 17 -15 22 -12 5 3 11
1 15 -5 4 -6 11 -8 16 -4 5 3 8 0 7 -8 -2 -9 8 -13 29 -12 17 0 32 -2 31 -5
-2 -21 7 -26 46 -26 26 1 44 -4 43 -10 -1 -6 19 -10 50 -10 28 1 50 -2 47 -6
-2 -4 11 -10 29 -14 17 -4 35 -9 40 -10 4 -1 12 -3 17 -4 6 0 10 -7 10 -15 0
-10 10 -14 32 -12 20 2 40 -4 51 -15 10 -9 29 -16 42 -14 13 1 24 -1 23 -4 -2
-20 5 -27 25 -26 12 1 30 -4 39 -12 9 -8 21 -12 26 -9 4 3 22 -2 38 -10 16 -9
42 -17 58 -20 15 -2 35 -9 43 -16 8 -6 24 -13 35 -13 12 -1 26 -8 32 -17 6 -8
23 -14 38 -13 15 1 25 -1 23 -5 -7 -12 30 -26 68 -25 24 0 37 -4 37 -13 0 -7
4 -11 9 -7 5 3 12 1 15 -3 6 -10 36 -9 54 2 6 4 12 3 12 -2 0 -13 37 -24 93
-26 27 -2 52 -8 56 -15 7 -11 26 -18 55 -20 5 -1 6 -4 3 -8 -4 -3 1 -12 11
-19 13 -9 17 -26 17 -70 0 -44 5 -64 18 -77 10 -10 16 -26 13 -34 -4 -9 1 -24
10 -35 10 -10 18 -27 19 -37 0 -10 9 -26 18 -35 9 -10 17 -21 17 -26 0 -5 6
-7 13 -4 10 4 12 -3 9 -25 -2 -17 -9 -29 -15 -28 -6 1 -11 -12 -10 -30 0 -18
-4 -31 -11 -30 -6 1 -10 -4 -9 -10 2 -7 -1 -13 -5 -13 -5 0 -9 -12 -9 -27 -1
-53 -3 -64 -13 -58 -9 6 -15 -8 -11 -29 1 -4 -6 -20 -16 -35 -10 -14 -18 -34
-18 -43 0 -10 -4 -18 -9 -17 -14 1 -23 -20 -22 -54 1 -19 -5 -37 -14 -44 -8
-6 -15 -26 -15 -45 -1 -20 -6 -32 -13 -31 -7 2 -12 -4 -12 -12 0 -8 -4 -15 -9
-15 -5 0 -8 -8 -6 -17 1 -10 -5 -29 -15 -43 -9 -14 -16 -35 -15 -47 1 -12 -1
-21 -4 -20 -3 1 -6 -1 -6 -4 0 -3 -5 -12 -11 -20 -5 -8 -10 -23 -10 -34 1 -11
-7 -26 -16 -33 -11 -8 -15 -21 -12 -37 2 -14 1 -25 -3 -24 -23 4 -31 -3 -28
-21 2 -11 -7 -33 -21 -50 -15 -17 -20 -30 -13 -30 7 0 9 -3 6 -7 -4 -3 -44 -8
-90 -9 -45 -1 -83 -3 -84 -3 -2 -1 -6 -1 -9 0 -4 0 -10 -5 -14 -11 -4 -7 -24
-13 -44 -14 -20 0 -36 -3 -36 -6 0 -3 -15 -6 -32 -6 -60 -2 -69 -4 -63 -14 7
-12 7 -12 -109 -14 -64 -1 -91 -6 -100 -16 -6 -9 -30 -16 -56 -17 -59 -2 -75
-6 -94 -22 -12 -10 -16 -11 -16 -1 0 8 -4 9 -12 3 -19 -14 -89 -9 -102 8 -6 8
-21 14 -33 13 -13 -1 -23 4 -23 12 0 13 -18 19 -48 15 -7 -1 -19 5 -28 14 -8
8 -22 15 -30 15 -8 0 -13 4 -10 9 8 12 -39 20 -58 9 -9 -5 -13 -14 -10 -20 4
-7 2 -8 -5 -4 -6 4 -18 2 -26 -4 -8 -7 -15 -9 -15 -4 0 5 -5 1 -11 -8 -5 -10
-17 -18 -26 -18 -8 0 -13 -6 -10 -13 3 -8 -3 -14 -16 -14 -11 -1 -23 -7 -27
-13 -4 -6 -17 -12 -28 -13 -20 -1 -26 -9 -23 -29 0 -4 -9 -5 -20 -3 -11 2 -28
-4 -37 -13 -9 -9 -23 -17 -29 -18 -39 -3 -41 -5 -38 -40 1 -22 -3 -38 -11 -41
-7 -3 -16 -13 -19 -24 -4 -10 -13 -19 -21 -19 -16 0 -18 -9 -5 -29 5 -7 15
-10 22 -7 8 4 5 -1 -7 -11 -11 -10 -20 -28 -19 -41 1 -14 -5 -24 -17 -28 -11
-3 -17 -12 -14 -20 3 -7 -2 -20 -10 -29 -15 -14 -21 -32 -23 -62 -1 -7 -4 -12
-9 -10 -4 1 -8 -2 -9 -7 -1 -5 -12 -14 -25 -20 -18 -9 -23 -20 -23 -53 0 -28
-3 -39 -12 -36 -13 5 -14 3 -17 -39 -1 -13 -7 -22 -13 -21 -14 3 -27 -32 -18
-47 6 -9 -7 -14 -31 -11 -12 1 -31 -17 -34 -33 -1 -5 4 -13 12 -17 9 -6 9 -9
1 -9 -6 0 -10 -9 -8 -19 2 -13 -1 -18 -9 -15 -16 6 -27 -17 -21 -45 2 -11 1
-20 -3 -20 -22 3 -30 -3 -27 -20 2 -11 -9 -31 -29 -50 -23 -22 -32 -40 -31
-59 2 -30 -12 -55 -26 -46 -8 5 -13 -9 -10 -28 0 -4 -6 -5 -14 -2 -15 6 -18
-1 -18 -38 0 -10 -7 -20 -17 -23 -12 -4 -17 -14 -15 -34 2 -21 -1 -28 -11 -24
-14 5 -15 2 -18 -34 0 -10 -15 -31 -31 -48 -17 -16 -30 -37 -30 -45 0 -15 -40
-60 -55 -60 -5 0 -7 -8 -5 -18 4 -20 -7 -43 -21 -45 -5 -1 -8 -8 -8 -14 1 -7
-2 -10 -7 -7 -5 3 -20 -3 -33 -13 -21 -17 -41 -18 -197 -17 -181 2 -194 3
-219 19 -16 10 -200 15 -200 5 0 -15 -73 -2 -82 14 -7 13 -13 15 -23 6 -8 -7
-19 -9 -25 -5 -5 3 -10 0 -10 -7 0 -8 -14 -13 -40 -14 -22 -1 -43 -4 -46 -7
-10 -10 -11 -97 0 -97 5 0 7 -3 3 -6 -3 -4 0 -12 7 -19 10 -11 12 -54 5 -102
-5 -28 3 -55 14 -50 8 3 12 -11 13 -50 1 -29 8 -60 15 -69 10 -12 10 -15 -1
-12 -20 5 -20 -151 0 -163 10 -6 2 -8 -27 -9 -28 0 -42 4 -40 12 1 6 -9 12
-23 12 -14 0 -27 3 -30 8 -3 4 -16 9 -28 11 -12 2 -32 12 -44 24 -13 11 -40
28 -60 38 -20 9 -49 27 -63 40 -14 13 -25 22 -25 20 0 -3 -9 4 -20 15 -11 11
-24 20 -30 20 -5 0 -10 7 -10 16 0 8 -4 13 -9 10 -8 -6 -59 28 -73 49 -4 5 -8
6 -8 2 0 -5 -19 10 -41 32 -23 22 -46 38 -52 34 -6 -3 -7 -1 -4 4 8 12 -17 36
-26 26 -4 -3 -7 1 -7 10 0 9 -5 17 -10 17 -12 0 -49 31 -139 118 -36 34 -61
62 -56 62 5 0 -1 7 -13 16 -12 8 -22 19 -22 25 0 13 -37 48 -44 41 -5 -5 -9
14 -4 21 5 7 -24 47 -31 42 -5 -2 -8 3 -7 13 0 9 -5 16 -11 15 -19 -4 -16 12
8 33 12 10 23 14 27 9 10 -14 27 -17 99 -19 34 -1 65 -4 68 -8 4 -3 19 -3 33
1 35 9 42 8 72 -9 14 -8 53 -14 88 -15 43 -1 66 -6 73 -16 6 -10 9 -11 9 -1 0
7 5 10 10 7 6 -3 10 -2 10 3 0 6 14 6 38 0 20 -5 54 -10 74 -11 21 -1 38 -6
38 -10 0 -5 4 -6 9 -2 5 3 12 1 16 -5 4 -6 11 -8 16 -4 5 3 15 2 22 -3 7 -5
77 -9 156 -9 101 1 145 -2 148 -10 5 -14 31 -12 41 2 11 14 36 11 50 -8 8 -10
21 -15 35 -12 12 3 76 7 142 9 66 2 130 6 143 9 12 3 22 2 22 -2 0 -4 59 -7
131 -7 113 1 132 3 141 18 5 10 13 15 18 12 11 -7 33 32 25 44 -3 5 4 12 14
16 13 4 18 11 14 22 -4 10 -2 14 5 9 12 -7 21 4 27 35 2 12 12 27 22 35 13 9
14 13 4 14 -10 0 -11 3 -2 13 6 8 7 18 3 22 -4 5 -2 6 3 3 13 -6 49 33 53 57
2 11 11 25 20 31 10 7 17 18 17 26 1 7 7 12 14 10 8 -2 11 3 8 13 -4 8 -1 15
5 15 6 0 8 3 5 7 -4 3 1 12 11 19 9 7 17 23 17 36 0 13 6 24 13 24 6 1 16 2
21 3 4 0 7 12 6 26 -2 16 4 30 16 38 10 8 16 17 12 20 -3 4 1 7 10 7 10 0 17
3 18 8 3 33 11 57 22 64 6 4 13 12 13 18 1 5 2 15 3 21 0 5 5 8 10 5 11 -7 19
12 16 41 -1 16 4 23 17 23 10 0 17 6 15 13 -1 6 4 11 11 10 6 -2 13 4 13 12 1
8 2 20 3 26 0 6 9 16 18 23 10 8 16 22 13 34 -2 14 2 23 15 27 12 4 17 14 15
30 -2 23 5 30 28 26 4 0 8 4 8 9 1 6 3 19 4 30 1 11 3 26 4 33 1 8 4 7 11 -3
7 -10 10 -11 11 -2 1 6 3 17 4 22 1 6 3 17 4 26 0 8 5 13 10 10 11 -7 19 12
16 41 -1 13 3 19 11 16 14 -5 29 31 19 47 -3 5 1 10 9 10 17 0 18 3 20 60 2
23 7 35 16 35 12 0 15 20 15 97 0 55 5 102 11 108 9 9 35 16 77 19 5 1 6 4 4
9 -3 4 56 7 131 7 l137 0 12 35 c11 30 10 37 -4 48 -21 15 -11 14 -173 16 -74
1 -144 -2 -155 -7 -11 -5 -17 -6 -13 -2 11 12 -11 35 -28 28 -7 -3 -11 -9 -8
-14 3 -5 1 -9 -4 -9 -13 0 -24 29 -16 41 3 5 -2 12 -10 15 -27 10 -18 19 22
21 69 4 101 8 108 16 13 13 34 7 34 -9 0 -13 3 -14 14 -5 7 6 20 9 28 6 9 -4
19 3 27 17 6 13 9 15 7 6 -5 -15 1 -18 35 -18 24 0 38 4 34 10 -3 6 0 11 7 11
22 3 72 7 98 8 39 2 53 16 52 51 -1 38 -1 39 -31 43 -12 2 -26 10 -31 17 -11
18 -60 21 -60 5 0 -22 -71 -31 -226 -30 -140 1 -152 3 -172 23 -18 18 -19 23
-7 35 8 8 12 16 10 18 -2 2 86 4 196 4 109 0 199 -3 199 -7 0 -4 20 -1 45 6
25 8 42 10 39 5 -3 -5 2 -9 10 -9 9 0 16 5 16 12 0 6 3 8 7 5 7 -8 39 11 79
46 15 13 24 31 24 50 0 26 -3 29 -25 25 -13 -3 -24 -2 -23 1 3 27 -4 30 -21
10 -18 -22 -19 -22 -18 -5 2 15 -4 20 -23 20 -14 0 -24 -6 -22 -12 1 -7 -5
-12 -13 -12 -8 0 -15 6 -15 13 0 19 -29 17 -35 -2 -4 -12 -17 -17 -49 -17 -29
0 -42 4 -39 12 2 6 -5 14 -16 17 -12 3 -21 1 -21 -3 0 -4 -10 -6 -22 -2 -13 3
-19 1 -15 -5 10 -17 -18 -19 -165 -17 -107 1 -142 5 -160 18 l-22 16 31 0 c18
0 36 7 41 15 4 9 25 18 46 20 21 3 42 8 47 11 5 3 12 -1 15 -10 3 -8 12 -12
20 -9 8 3 12 8 10 12 -2 3 111 6 252 5 142 0 268 3 282 8 14 5 33 20 44 35 17
23 17 28 4 56 -15 31 -15 31 -99 31 -46 1 -87 -3 -91 -9 -5 -7 -11 -6 -15 1
-5 6 -17 9 -28 7 -31 -6 -86 -6 -92 1 -3 3 -13 -3 -22 -12 -9 -10 -15 -16 -14
-14 1 2 -3 10 -10 17 -12 13 -48 8 -59 -8 -8 -13 -67 -17 -74 -5 -3 4 -10 8
-15 8 -6 0 -7 -6 -3 -12 5 -9 2 -9 -9 1 -10 8 -17 9 -17 3 0 -6 -10 -9 -21 -7
-12 2 -29 0 -38 -5 -12 -6 -20 -3 -29 10 -10 16 -17 18 -37 10 -14 -5 -25 -6
-25 -1 0 4 -16 7 -36 6 -20 0 -44 6 -54 15 -19 16 -29 67 -18 85 4 7 48 11
107 10 56 0 101 3 101 6 0 3 15 4 33 3 17 -1 32 -3 32 -4 0 -1 35 -3 78 -4 42
-1 77 1 77 4 0 3 31 5 69 5 38 0 67 -3 65 -6 -5 -9 48 -21 99 -23 25 -2 43 4
54 16 13 15 18 16 27 4 23 -28 66 -26 103 7 28 25 33 35 28 56 -9 37 -18 43
-67 46 -26 1 -42 6 -40 13 1 7 -11 12 -29 12 -17 0 -28 -4 -24 -10 8 -12 8
-12 -85 -14 -41 -1 -79 -4 -85 -7 -12 -7 -562 -6 -568 1 -6 6 -10 30 -8 51 1
12 8 15 26 11 15 -2 25 0 25 7 0 18 18 13 24 -7 4 -12 14 -18 29 -16 12 1 27
3 34 3 7 1 10 7 8 14 -4 9 48 12 245 12 137 0 250 2 250 6 0 3 7 6 15 6 8 0
15 -4 15 -9 0 -5 6 -3 14 4 8 7 12 16 9 21 -2 4 -1 7 4 6 4 -1 10 0 13 1 3 1
26 3 53 4 40 2 47 -1 47 -16 0 -15 3 -17 19 -8 11 5 29 10 40 10 29 0 28 41
-1 66 -17 14 -35 19 -68 17 -25 -2 -146 -4 -270 -6 -210 -2 -257 -7 -246 -26
3 -4 -29 -7 -70 -6 -41 0 -77 -2 -79 -5 -3 -6 -112 -6 -136 -1 -3 0 -5 16 -4
34 3 38 -4 59 -16 51 -16 -9 -10 6 11 28 11 12 20 17 20 10 0 -7 19 -10 53 -9
30 1 51 6 50 13 -1 6 15 10 40 9 23 0 41 -6 40 -11 -1 -7 82 -10 249 -10 208
1 252 4 261 16 13 16 110 24 101 8 -3 -4 2 -11 12 -15 20 -8 44 21 44 54 0 22
-35 50 -55 44 -38 -11 -46 -10 -40 9 5 15 3 18 -9 14 -9 -3 -14 -10 -11 -14 3
-5 1 -11 -5 -15 -5 -3 -10 0 -10 8 0 23 -19 26 -142 24 -84 -2 -112 -5 -110
-14 3 -18 -9 -16 -23 4 -7 10 -17 13 -25 8 -17 -10 -170 -13 -170 -2 0 4 5 7
12 7 7 0 5 7 -5 18 -15 16 -9 17 114 16 71 -1 132 2 134 7 3 4 15 5 26 2 15
-4 27 1 40 18 11 13 17 17 13 7 -3 -10 1 -18 13 -21 14 -5 148 -3 175 2 19 3
40 132 25 148 -10 9 -97 12 -97 3 0 -4 -11 -7 -24 -6 -13 0 -22 4 -20 8 3 4
-8 10 -23 14 -15 3 -33 7 -40 9 -7 2 -19 -3 -28 -11 -11 -12 -15 -12 -15 -2 0
10 -3 9 -10 -2 -10 -16 7 -15 -785 -24 -176 -1 -329 -7 -339 -11 -13 -6 -17
-5 -13 2 10 15 -68 34 -82 20 -6 -6 -11 -8 -11 -4 0 4 -10 2 -22 -4 -15 -8
-80 -13 -185 -14 -120 -1 -166 -5 -178 -15 -9 -8 -41 -15 -71 -17 -30 -2 -80
-5 -111 -7 -32 -2 -64 -5 -72 -5 -8 -1 -11 -4 -7 -8 4 -4 -8 -14 -26 -23 l-33
-15 0 -78 c0 -42 -3 -77 -7 -77 -5 0 -8 -7 -8 -15 0 -8 -4 -15 -9 -15 -5 0 -8
-8 -6 -17 1 -10 9 -18 16 -17 10 1 13 -10 10 -42 -1 -24 -7 -42 -11 -39 -5 3
-11 1 -15 -5 -16 -26 -20 2 -20 150 1 145 -1 160 -17 166 -10 3 -18 10 -18 15
0 5 -3 8 -7 7 -5 -1 -17 3 -28 9 -19 10 -72 10 -82 -1 -5 -5 -6 -175 -2 -243
1 -12 7 -24 15 -27 9 -3 11 -13 5 -33 -4 -15 -6 -61 -5 -100 2 -94 2 -93 17
-93 9 0 12 -14 12 -42 -1 -24 2 -54 8 -68 17 -48 19 -66 22 -225 2 -88 4 -162
6 -165 4 -9 7 -24 8 -48 0 -13 5 -20 11 -17 5 3 10 2 10 -4 0 -5 7 -17 16 -25
8 -9 16 -25 17 -36 1 -23 27 -37 27 -15 0 8 5 15 11 15 5 0 7 -4 4 -10 -3 -5
-3 -10 2 -10 13 0 9 -232 -5 -256 -6 -12 -8 -25 -4 -29 4 -5 1 -5 -5 -1 -15 8
-15 11 -17 -121 -1 -77 -5 -106 -17 -120 -9 -10 -15 -26 -14 -35 2 -10 -3 -18
-11 -18 -13 0 -18 -12 -15 -33 0 -4 -2 -6 -6 -6 -19 3 -31 -2 -30 -13 1 -33
-4 -49 -13 -43 -9 6 -14 -8 -11 -28 0 -4 -2 -6 -6 -6 -21 3 -32 -2 -27 -14 2
-7 -13 -31 -35 -52 -22 -22 -37 -43 -34 -48 3 -5 -3 -7 -13 -5 -11 2 -19 -3
-20 -12 0 -8 -2 -23 -2 -32 -1 -10 -9 -18 -18 -18 -10 0 -14 -5 -10 -16 3 -8
2 -13 -3 -10 -12 8 -33 -19 -23 -28 4 -4 1 -6 -7 -4 -8 2 -19 -11 -26 -32 -8
-19 -14 -31 -14 -26 -1 9 -45 -43 -47 -56 -1 -5 -2 -13 -3 -19 0 -5 -5 -8 -10
-4 -5 3 -12 -4 -16 -15 -3 -11 -13 -20 -21 -20 -10 0 -13 -8 -10 -25 4 -23 1
-27 -21 -24 -4 0 -10 -8 -14 -18 -3 -10 -12 -18 -20 -18 -8 0 -14 -7 -14 -15
-1 -8 -6 -14 -13 -12 -7 1 -12 -4 -12 -11 0 -7 -10 -22 -22 -34 -29 -25 -56
-58 -88 -105 -13 -20 -28 -34 -32 -32 -4 3 -8 -1 -8 -9 0 -8 -7 -17 -15 -21
-8 -3 -15 -10 -15 -15 0 -5 -17 -27 -37 -49 -52 -55 -63 -69 -63 -82 0 -5 -4
-10 -9 -10 -5 0 -17 -7 -25 -16 -15 -14 -17 -14 -22 0 -3 9 -10 14 -14 11 -13
-8 -66 42 -80 75 -7 16 -16 30 -21 30 -5 0 -9 5 -9 11 0 6 -6 16 -12 24 -33
34 -50 59 -54 78 -2 12 -8 23 -14 25 -6 2 -8 8 -4 13 3 5 1 9 -5 9 -6 0 -17
14 -26 30 -9 17 -13 30 -10 30 3 0 -4 9 -15 20 -19 19 -42 62 -45 85 0 6 -7 9
-14 7 -8 -2 -11 3 -8 12 3 8 -1 17 -9 20 -9 3 -12 10 -9 16 3 5 1 10 -5 10 -7
0 -10 7 -6 15 3 8 1 15 -5 15 -6 0 -8 4 -5 9 3 5 -1 12 -10 15 -8 3 -13 10 -9
15 3 5 1 12 -5 16 -6 4 -8 10 -5 15 3 5 -1 14 -8 22 -15 15 -17 20 -17 48 0
11 -7 20 -16 20 -8 0 -13 4 -10 8 3 5 -2 22 -11 38 -8 16 -17 42 -19 58 -2 16
-9 35 -15 42 -6 8 -8 14 -5 14 4 0 1 10 -6 23 -7 12 -11 25 -10 30 1 4 -2 7
-6 7 -4 0 -7 12 -6 28 0 15 -3 29 -7 32 -4 3 -10 17 -13 30 -3 14 -8 36 -11
50 -3 14 -8 34 -10 45 -2 11 -7 34 -13 50 -5 17 -8 45 -7 63 1 17 -2 32 -6 32
-4 0 -6 9 -4 20 2 11 -2 25 -8 32 -7 7 -12 33 -12 58 1 25 -2 50 -4 55 -3 6
-7 26 -9 45 -1 19 -4 45 -5 58 -1 12 -4 22 -8 22 -3 0 -5 21 -4 48 0 26 -3 52
-8 59 -4 6 -4 14 2 17 6 4 8 13 4 21 -3 8 -1 15 4 15 12 0 2 117 -11 139 -8
12 -16 93 -19 186 -1 28 -6 53 -11 57 -6 4 -6 12 0 20 6 7 9 28 7 46 -1 17 1
32 5 32 5 0 8 31 7 70 -1 42 4 82 13 102 20 44 23 56 26 108 2 25 5 46 6 48 1
1 4 7 5 12 1 6 4 11 5 13 6 5 32 197 32 230 -1 9 3 17 7 17 4 0 7 16 8 35 1
20 6 41 12 49 6 7 8 15 5 18 -3 3 8 32 25 63 17 32 31 66 31 76 0 11 5 19 11
19 5 0 7 5 4 10 -3 6 -1 10 4 10 6 0 10 3 9 8 -3 12 13 52 22 52 4 0 7 8 6 17
-2 10 5 33 15 50 10 18 16 33 14 33 -3 0 1 10 10 23 8 13 17 43 20 67 3 24 9
47 14 50 4 3 20 28 35 55 15 28 39 59 52 71 13 12 21 24 18 27 -5 4 20 16 49
23 4 1 8 3 10 4 4 4 67 10 150 14 44 3 81 7 84 9 3 3 15 3 26 1 12 -3 63 -7
112 -10z m2387 -892 c8 -8 5 -9 -11 -5 -16 4 -24 1 -27 -13 -4 -16 -14 -19
-72 -18 -119 3 -122 3 -122 18 0 25 20 29 55 10 27 -14 40 -16 62 -8 15 6 27
15 26 20 -2 13 76 9 89 -4z m-1638 -277 c12 -9 18 -26 18 -52 -1 -75 -15 -268
-19 -273 -3 -3 -4 51 -2 120 2 102 -1 125 -12 124 -10 -1 -14 12 -14 48 0 52
1 54 29 33z m3961 -113 c17 -2 35 -9 40 -15 6 -7 27 -12 47 -12 20 1 36 -3 35
-8 -1 -5 5 -11 13 -12 54 -11 66 -14 73 -14 5 -1 6 -5 3 -10 -7 -11 29 -21 60
-15 17 3 24 0 24 -11 0 -9 7 -18 15 -21 14 -6 13 -8 -1 -19 -9 -6 -14 -17 -10
-23 5 -8 2 -10 -8 -6 -14 6 -21 -5 -17 -28 0 -5 -2 -7 -7 -7 -21 4 -42 -2 -37
-10 3 -5 -10 -15 -29 -22 -19 -7 -32 -17 -29 -23 4 -5 -1 -7 -10 -3 -15 6 -21
-3 -18 -25 0 -3 -7 -5 -16 -4 -8 1 -26 -7 -38 -18 -39 -35 -54 -46 -64 -46 -6
0 -8 -7 -4 -15 3 -9 2 -15 -3 -14 -23 4 -36 -2 -31 -15 4 -10 -1 -13 -19 -11
-16 1 -28 -4 -35 -16 -5 -10 -15 -18 -22 -16 -7 1 -11 -4 -9 -11 1 -8 -2 -11
-7 -8 -5 4 -12 2 -16 -4 -4 -7 -14 -6 -28 2 -12 7 -24 12 -27 11 -10 -3 -1
153 14 242 3 17 8 47 10 69 3 21 11 44 17 52 6 8 9 14 6 14 -3 0 -1 13 4 30 6
16 14 28 17 27 4 -1 7 2 7 8 0 11 57 24 65 15 3 -3 19 -6 35 -8z m814 -266
c-1 -14 32 -30 40 -19 10 15 46 9 66 -11 12 -12 21 -14 23 -7 2 6 8 9 13 5 5
-3 21 -8 36 -10 15 -3 32 -9 38 -14 7 -5 20 -11 31 -13 10 -2 33 -10 49 -17
17 -7 37 -14 45 -16 8 -2 16 -8 18 -14 2 -5 8 -8 13 -4 5 3 9 0 9 -6 0 -7 6
-10 13 -7 33 13 41 -10 42 -118 0 -59 -3 -109 -7 -111 -5 -3 -4 -13 1 -23 7
-12 5 -20 -8 -28 -14 -9 -17 -23 -16 -70 2 -62 -2 -86 -15 -78 -4 3 -13 -2
-20 -10 -10 -12 -10 -15 1 -15 9 0 10 -3 4 -8 -5 -4 -11 -29 -12 -57 -1 -27
-8 -54 -15 -60 -8 -6 -13 -30 -13 -59 0 -30 -5 -55 -14 -63 -8 -8 -15 -29 -16
-46 -4 -48 -4 -49 -15 -42 -9 6 -12 -8 -13 -72 -1 -12 -4 -20 -8 -17 -11 6
-24 -17 -25 -46 -2 -46 -4 -51 -14 -45 -10 6 -12 -3 -14 -62 0 -17 -3 -31 -6
-31 -19 2 -25 -5 -27 -29 0 -14 -7 -30 -15 -34 -7 -4 -14 -23 -13 -41 0 -18
-6 -38 -13 -43 -11 -9 -18 -28 -21 -57 -1 -5 -7 -8 -15 -8 -7 0 -13 -10 -12
-22 0 -13 -7 -31 -16 -40 -10 -10 -18 -25 -18 -33 0 -8 -4 -15 -10 -15 -5 0
-10 -6 -10 -13 0 -7 -9 -19 -19 -26 -11 -8 -18 -23 -16 -33 2 -10 0 -16 -6
-13 -5 4 -9 1 -9 -4 0 -6 -5 -10 -11 -9 -6 2 -13 -6 -15 -16 -1 -10 -9 -23
-16 -27 -7 -5 -9 -9 -4 -9 5 0 0 -10 -11 -22 -12 -13 -31 -43 -44 -68 -13 -25
-28 -48 -35 -53 -7 -4 -11 -16 -9 -27 2 -11 0 -18 -4 -15 -12 7 -34 -22 -26
-35 4 -6 1 -9 -7 -8 -7 2 -12 -3 -10 -9 1 -7 -2 -13 -8 -13 -5 0 -10 -7 -10
-15 0 -8 -7 -15 -17 -15 -9 0 -14 -3 -11 -6 7 -7 -39 -54 -54 -54 -5 0 -8 -6
-6 -12 3 -7 -4 -21 -14 -30 -10 -10 -18 -16 -18 -13 0 3 -6 0 -14 -7 -8 -7
-12 -16 -10 -20 2 -4 -4 -9 -15 -13 -13 -4 -18 -13 -17 -30 2 -14 -1 -22 -9
-19 -11 4 -55 -27 -55 -39 0 -11 -51 -57 -62 -57 -6 0 -8 -3 -5 -7 4 -3 -2
-13 -13 -20 -11 -8 -18 -19 -15 -24 3 -5 -1 -6 -9 -3 -14 6 -21 -5 -17 -29 0
-4 -3 -6 -8 -5 -12 4 -60 -49 -52 -57 3 -4 2 -6 -4 -5 -21 5 -36 0 -30 -10 3
-6 -4 -14 -17 -19 -13 -6 -19 -10 -13 -10 5 -1 -1 -8 -13 -17 -12 -8 -20 -20
-16 -25 3 -5 2 -9 -3 -8 -20 3 -34 -2 -28 -11 3 -5 -1 -10 -9 -10 -8 0 -21 -8
-28 -18 -7 -10 -23 -17 -35 -16 -13 1 -23 -2 -23 -7 0 -14 -47 -59 -53 -52 -4
3 -7 1 -7 -5 0 -6 -16 -19 -35 -28 -20 -9 -43 -26 -53 -38 -10 -11 -24 -22
-32 -24 -8 -2 -22 -10 -31 -18 -9 -8 -19 -11 -22 -7 -6 5 -11 -10 -9 -28 1 -3
-4 -6 -11 -6 -22 -1 -97 -40 -90 -46 3 -4 2 -7 -3 -8 -28 -2 -48 -9 -62 -22
-10 -9 -30 -19 -45 -23 -16 -3 -31 -13 -34 -21 -7 -18 -53 -41 -75 -38 -10 2
-18 -3 -18 -11 0 -8 -5 -14 -11 -14 -5 0 -30 -9 -55 -20 -24 -12 -49 -18 -54
-15 -6 3 -10 2 -10 -3 0 -11 -39 -28 -60 -27 -17 0 -40 -17 -34 -26 2 -3 -7
-6 -19 -6 -40 -1 -47 -3 -45 -14 2 -6 -6 -12 -17 -14 -31 -3 -65 -16 -65 -24
0 -5 -16 -7 -35 -5 -19 1 -35 -2 -35 -8 0 -6 -6 -8 -14 -5 -8 3 -17 0 -20 -8
-3 -9 -17 -12 -41 -11 -19 2 -38 -1 -41 -6 -3 -5 -12 -7 -19 -4 -7 2 -16 -2
-19 -9 -3 -8 -14 -12 -25 -10 -19 3 -47 -25 -37 -36 3 -2 -19 -5 -47 -5 -58
-2 -98 -10 -106 -21 -3 -5 -23 -9 -44 -10 -21 0 -46 -8 -55 -15 -10 -9 -35
-14 -57 -13 -22 0 -51 -6 -64 -14 -18 -12 -53 -16 -133 -16 -80 0 -111 -4
-117 -14 -5 -7 -30 -14 -57 -16 -27 -2 -49 -4 -49 -5 0 -1 -10 -3 -23 -4 -14
-2 -27 4 -33 16 -5 10 -17 18 -25 18 -10 0 -12 5 -7 13 10 16 10 39 -1 54 -5
8 -4 13 2 13 6 0 9 17 7 40 -2 22 0 40 4 40 3 0 6 43 5 95 0 52 2 95 5 95 3 0
6 44 5 98 0 53 4 105 9 115 4 10 10 44 13 75 8 111 22 186 35 190 5 2 7 8 3
13 -3 5 -2 9 3 9 4 0 9 30 10 68 2 37 3 75 4 85 0 9 5 17 11 17 5 0 7 7 4 16
-3 9 -3 21 1 27 4 7 7 26 8 43 0 17 7 39 15 49 8 9 15 31 16 49 1 17 2 37 3
43 1 7 6 12 13 10 12 -2 13 1 18 51 2 20 5 15 9 -18 4 -32 10 -45 21 -44 13 1
16 -14 15 -87 0 -70 10 -160 14 -126 1 5 6 5 12 2 6 -5 4 -12 -7 -20 -16 -11
-18 -35 -20 -221 -2 -246 -2 -237 -13 -230 -12 8 -16 -39 -16 -181 1 -68 -2
-123 -5 -123 -4 0 -6 -46 -5 -102 2 -97 3 -102 24 -103 26 -2 50 19 52 43 1
18 4 34 8 42 3 6 10 36 16 70 3 14 7 55 9 91 2 37 7 72 11 79 7 11 12 145 17
403 0 31 4 57 7 57 3 0 6 73 5 163 0 89 4 168 9 175 5 6 6 12 3 12 -4 0 -2 9
4 20 6 11 12 37 14 57 3 21 5 40 6 43 1 3 2 8 1 13 -1 7 15 11 32 8 4 -1 13 3
20 9 49 40 106 77 111 73 3 -4 6 -1 6 5 0 7 6 12 14 12 8 0 21 6 28 13 12 11
25 16 54 21 9 1 23 11 58 43 8 7 23 11 34 8 11 -2 29 5 40 15 11 10 28 20 38
22 11 2 28 11 39 21 10 10 25 15 32 13 7 -3 13 -1 13 4 0 8 28 21 59 26 8 2
17 7 20 12 3 6 15 12 26 14 11 1 27 9 37 17 9 8 29 15 43 17 15 2 35 10 44 18
10 9 22 16 28 16 6 0 14 7 17 16 4 9 9 14 12 11 3 -3 24 4 45 15 22 11 43 18
46 14 3 -3 12 2 19 11 6 10 27 18 45 19 18 1 37 8 43 16 6 8 21 14 34 15 12 1
35 8 50 15 15 7 38 13 52 13 42 -1 113 83 118 139 4 53 5 56 14 56 5 0 6 5 3
10 -4 6 -1 17 5 25 7 8 9 15 5 15 -4 0 0 11 9 25 9 13 17 37 18 52 2 18 21 47
55 82 29 29 53 50 53 45 0 -5 7 2 16 14 8 12 18 20 22 18 4 -2 16 2 27 10 10
8 15 14 11 14 -5 0 9 15 30 34 21 19 41 33 44 31 6 -3 79 73 74 78 -3 2 15 24
38 48 23 24 42 47 43 50 0 9 89 88 98 89 5 0 6 4 3 9 -6 10 48 61 66 61 6 0 9
3 6 6 -6 5 30 48 42 50 19 3 40 18 40 28 0 7 10 21 23 33 12 11 31 31 42 44
11 13 32 39 48 57 15 19 25 38 21 43 -3 5 2 9 10 9 9 0 16 6 16 13 0 7 11 21
25 31 14 10 25 24 25 30 0 10 5 16 75 89 20 20 33 37 28 38 -4 0 2 4 15 10 14
5 20 13 16 20 -4 8 -3 9 4 5 6 -4 16 1 23 11 9 16 24 18 95 18 46 0 84 -4 83
-9z m-4772 -308 c-3 -7 -5 -2 -5 12 0 14 2 19 5 13 2 -7 2 -19 0 -25z m2683
-1312 c0 -9 -12 -16 -27 -18 -17 -2 -28 -9 -27 -18 1 -11 -9 -15 -35 -15 -25
0 -36 -4 -36 -15 0 -10 -10 -15 -27 -14 -19 0 -30 -6 -34 -18 -4 -13 -12 -17
-24 -13 -12 4 -23 -1 -32 -13 -10 -14 -24 -19 -58 -18 -30 1 -50 -4 -61 -15
-10 -10 -20 -15 -23 -12 -3 3 -8 -1 -12 -10 -5 -13 -8 -13 -25 4 -22 22 -24
30 -7 27 7 -2 12 12 13 36 1 24 8 42 18 48 10 5 15 13 12 19 -7 10 -4 10 62
13 24 1 48 7 55 14 8 8 15 9 25 1 10 -9 17 -8 29 2 12 9 43 13 105 11 51 -1
90 2 94 8 9 14 15 12 15 -4z m-554 -157 c-1 -17 -9 -35 -17 -39 -7 -5 -14 -21
-15 -37 -3 -48 -4 -53 -11 -53 -5 0 -7 19 -6 42 1 24 2 60 2 81 1 33 4 37 26
37 22 0 24 -4 21 -31z"/>
</g>
</svg>
